# xmcd
#
# Track frame offsets: 
#        150
#        17138
#        43984
#        66342
#        86476
#        107363
#        130247
#        145281
#        156685
#        169727
#        186975
#        203876
#
# Disc length: 2909 seconds
#
# Revision: 0
# Processed by: cddbd v1.5.2PL0 Copyright (c) Steve Scherf et al.
# Submitted via: ExactAudioCopy v0.99pb5
#
DISCID=b10b5b0c
DTITLE=Brad - Best Friends?
DYEAR=2010
DGENRE=
TTITLE0=Price of Love
TTITLE1=Without Regret
TTITLE2=Rush Hour
TTITLE3=Believe in Yourself
TTITLE4=Every Whisper
TTITLE5=One Love Remaining
TTITLE6=Low
TTITLE7=Oh My Goodness
TTITLE8=Luxury Car
TTITLE9=Bless Me Father
TTITLE10=Holiday
TTITLE11=Runnin' For Cover
EXTD=
EXTT0=
EXTT1=
EXTT2=
EXTT3=
EXTT4=
EXTT5=
EXTT6=
EXTT7=
EXTT8=
EXTT9=
EXTT10=
EXTT11=
PLAYORDER=
